<svg id="Livello_1" viewBox="0 0 66 66" xmlns="http://www.w3.org/2000/svg"><defs><style>.cls-1{fill:none;stroke:#fff;stroke-linecap:round;stroke-linejoin:round;stroke-width:2px;}</style></defs><title></title><path d="M1,34A32,32,0,1,0,33,2,32,32,0,0,0,1,34Z"></path><g id="Phone"><path class="cls-1" d="M34.93,40.84c1-.09,2.95-1.92,4-2a4,4,0,0,1,2.78.8l2.68,2L46,42.92a2.52,2.52,0,0,1,.43,3.62l-3.11,4a1.12,1.12,0,0,1-1,.43c-13.5-1.21-24.24-12.26-24.24-25.68a25,25,0,0,1,1-7,0.66,0.66,0,0,1,.5-0.45l5.91-.83a2.63,2.63,0,0,1,3.12,2L29,21l0.65,3.26a3.75,3.75,0,0,1-.53,2.78c-0.54.84-3.09,1.68-3.64,2.53h0A19.39,19.39,0,0,0,34.93,41V40.84Z"></path></g></svg>